<svg xmlns="http://www.w3.org/2000/svg" viewBox="0 0 64 64" role="img" aria-label="Apofasi logo">
  <defs>
    <linearGradient id="bg" x1="0%" x2="100%" y1="100%" y2="0%">
      <stop offset="0%" stop-color="#0d1b2a" />
      <stop offset="100%" stop-color="#274c77" />
    </linearGradient>
    <linearGradient id="accent" x1="0%" x2="0%" y1="0%" y2="100%">
      <stop offset="0%" stop-color="#f4d35e" />
      <stop offset="100%" stop-color="#f7b801" />
    </linearGradient>
  </defs>
  <rect width="64" height="64" rx="14" fill="url(#bg)" />
  <path d="M28 46 40 18l4.5 10.5c.5 1.2-.1 2.6-1.3 3.1s-2.6-.1-3.1-1.3L37 26l-7.8 19.2c-.5 1.2-1.9 1.8-3.1 1.3-1.2-.5-1.8-1.9-1.3-3.1L31 26l3.4 8.1c.5 1.2-.1 2.6-1.3 3.1-1.2.5-2.6-.1-3.1-1.3L26 24l-1.3 3.1c-.5 1.2-1.9 1.8-3.1 1.3-1.2-.5-1.8-1.9-1.3-3.1L23.5 18 36 46c.5 1.2-.1 2.6-1.3 3.1-.6.3-1.3.3-1.9 0-.6-.2-1.1-.7-1.4-1.3Z" fill="url(#accent)" />
</svg>
